<svg width="307" height="75" viewBox="0 0 307 75" fill="none" xmlns="http://www.w3.org/2000/svg">
<path d="M48.3013 0V11L14.3013 39L48.3013 63.5V75L0 39L48.3013 0Z" fill="#333333"/>
<path d="M258 0V11L292 39L258 63.5V75L306.301 39L258 0Z" fill="#333333"/>
<path d="M53.1668 8.58214C53.1668 7.58141 77.6848 2.70283 102.828 4.32902C127.972 5.95521 130.473 8.20686 136.728 9.83305C142.983 11.4592 152.99 12.46 152.99 12.46L153.115 23.9684C153.115 23.9684 150.238 23.9684 148.487 26.095C146.735 28.2215 141.552 40.3554 137.729 49.6122C133.905 58.869 127.346 63.1221 115.963 67.7505C104.579 72.3789 90.4641 70.5223 90.4641 70.5223C90.4641 70.5223 79.3884 70.5223 71.3051 61.4959C63.2218 52.4695 61.673 33.7256 61.673 33.7256C61.673 33.7256 61.4228 29.8477 59.5465 26.095C57.6701 22.3422 55.5636 21.8616 54.813 21.8616C54.0625 21.8616 53.7923 20.3408 53.7923 20.3408C53.7923 20.3408 53.5421 18.5895 53.1668 14.3364C52.7915 10.0832 53.1668 9.58287 53.1668 8.58214Z" fill="#333333"/>
<g filter="url(#filter0_ii_54_14035)">
<path d="M63.0493 13.2628C67.6777 13.1377 67.6777 15.0141 67.6777 15.0141C67.6777 15.0141 67.6777 16.8905 63.0493 16.8905C58.4209 16.8905 58.4209 15.0141 58.4209 15.0141C58.4209 15.0141 58.4209 13.3879 63.0493 13.2628Z" fill="#0796FA"/>
</g>
<g filter="url(#filter1_di_54_14035)">
<path d="M67.3036 38.5254C67.3036 38.5254 65.0519 23.7645 71.5567 16.259C78.0615 8.75354 103.455 8.75354 103.455 8.75354C103.455 8.75354 130.476 9.12881 136.104 18.6358C141.732 28.1428 132.225 48.908 132.225 48.908C132.225 48.908 128.597 57.0389 116.588 61.7924C104.579 66.5459 104.953 66.5459 94.3218 66.5459C83.6906 66.5459 81.0621 65.295 75.0577 59.4157C69.0533 53.5364 67.3036 38.5254 67.3036 38.5254Z" fill="#FAD532"/>
</g>
<path d="M252.833 8.58214C252.833 7.58141 228.315 2.70283 203.172 4.32902C178.028 5.95521 175.527 8.20686 169.272 9.83305C163.017 11.4592 152.99 12.5062 152.99 12.5062V24.0147C152.99 24.0147 155.762 23.9684 157.513 26.095C159.265 28.2215 164.448 40.3554 168.271 49.6122C172.095 58.869 178.654 63.1221 190.037 67.7505C201.421 72.3789 215.536 70.5223 215.536 70.5223C215.536 70.5223 226.612 70.5223 234.695 61.4959C242.778 52.4696 244.327 33.7256 244.327 33.7256C244.327 33.7256 244.577 29.8477 246.454 26.095C248.33 22.3422 250.436 21.8616 251.187 21.8616C251.938 21.8616 252.208 20.3408 252.208 20.3408C252.208 20.3408 252.458 18.5895 252.833 14.3364C253.208 10.0832 252.833 9.58287 252.833 8.58214Z" fill="#333333"/>
<g filter="url(#filter2_ii_54_14035)">
<path d="M242.826 13.2166C238.197 13.0915 238.197 14.9678 238.197 14.9678C238.197 14.9678 238.197 16.8442 242.826 16.8442C247.454 16.8442 247.454 14.9678 247.454 14.9678C247.454 14.9678 247.454 13.3417 242.826 13.2166Z" fill="#0796FA"/>
</g>
<g filter="url(#filter3_di_54_14035)">
<path d="M238.571 38.4791C238.571 38.4791 240.823 23.7183 234.318 16.2128C227.814 8.70728 202.42 8.70728 202.42 8.70728C202.42 8.70728 175.399 9.08255 169.771 18.5895C164.143 28.0965 173.65 48.8617 173.65 48.8617C173.65 48.8617 177.278 56.9927 189.287 61.7462C201.296 66.4996 200.922 66.4996 211.553 66.4996C222.184 66.4996 225.188 65.7491 231.193 59.8698C237.197 53.9905 238.571 38.4791 238.571 38.4791Z" fill="#FAD532"/>
</g>
<defs>
<filter id="filter0_ii_54_14035" x="58.4209" y="13.2568" width="9.25684" height="3.63367" filterUnits="userSpaceOnUse" color-interpolation-filters="sRGB">
<feFlood flood-opacity="0" result="BackgroundImageFix"/>
<feBlend mode="normal" in="SourceGraphic" in2="BackgroundImageFix" result="shape"/>
<feColorMatrix in="SourceAlpha" type="matrix" values="0 0 0 0 0 0 0 0 0 0 0 0 0 0 0 0 0 0 127 0" result="hardAlpha"/>
<feOffset dx="2" dy="2"/>
<feComposite in2="hardAlpha" operator="arithmetic" k2="-1" k3="1"/>
<feColorMatrix type="matrix" values="0 0 0 0 0.666667 0 0 0 0 0.666667 0 0 0 0 0.666667 0 0 0 0.25 0"/>
<feBlend mode="normal" in2="shape" result="effect1_innerShadow_54_14035"/>
<feColorMatrix in="SourceAlpha" type="matrix" values="0 0 0 0 0 0 0 0 0 0 0 0 0 0 0 0 0 0 127 0" result="hardAlpha"/>
<feOffset dx="-2" dy="-2"/>
<feComposite in2="hardAlpha" operator="arithmetic" k2="-1" k3="1"/>
<feColorMatrix type="matrix" values="0 0 0 0 0.133333 0 0 0 0 0.133333 0 0 0 0 0.133333 0 0 0 0.25 0"/>
<feBlend mode="normal" in2="effect1_innerShadow_54_14035" result="effect2_innerShadow_54_14035"/>
</filter>
<filter id="filter1_di_54_14035" x="66.9268" y="8.75354" width="74.958" height="61.7924" filterUnits="userSpaceOnUse" color-interpolation-filters="sRGB">
<feFlood flood-opacity="0" result="BackgroundImageFix"/>
<feColorMatrix in="SourceAlpha" type="matrix" values="0 0 0 0 0 0 0 0 0 0 0 0 0 0 0 0 0 0 127 0" result="hardAlpha"/>
<feOffset dx="2" dy="2"/>
<feGaussianBlur stdDeviation="1"/>
<feComposite in2="hardAlpha" operator="out"/>
<feColorMatrix type="matrix" values="0 0 0 0 0 0 0 0 0 0 0 0 0 0 0 0 0 0 0.25 0"/>
<feBlend mode="normal" in2="BackgroundImageFix" result="effect1_dropShadow_54_14035"/>
<feBlend mode="normal" in="SourceGraphic" in2="effect1_dropShadow_54_14035" result="shape"/>
<feColorMatrix in="SourceAlpha" type="matrix" values="0 0 0 0 0 0 0 0 0 0 0 0 0 0 0 0 0 0 127 0" result="hardAlpha"/>
<feMorphology radius="2" operator="erode" in="SourceAlpha" result="effect2_innerShadow_54_14035"/>
<feOffset dx="2" dy="2"/>
<feGaussianBlur stdDeviation="1"/>
<feComposite in2="hardAlpha" operator="arithmetic" k2="-1" k3="1"/>
<feColorMatrix type="matrix" values="0 0 0 0 1 0 0 0 0 1 0 0 0 0 1 0 0 0 0.25 0"/>
<feBlend mode="normal" in2="shape" result="effect2_innerShadow_54_14035"/>
</filter>
<filter id="filter2_ii_54_14035" x="238.197" y="13.2106" width="9.25684" height="3.63367" filterUnits="userSpaceOnUse" color-interpolation-filters="sRGB">
<feFlood flood-opacity="0" result="BackgroundImageFix"/>
<feBlend mode="normal" in="SourceGraphic" in2="BackgroundImageFix" result="shape"/>
<feColorMatrix in="SourceAlpha" type="matrix" values="0 0 0 0 0 0 0 0 0 0 0 0 0 0 0 0 0 0 127 0" result="hardAlpha"/>
<feOffset dx="2" dy="2"/>
<feComposite in2="hardAlpha" operator="arithmetic" k2="-1" k3="1"/>
<feColorMatrix type="matrix" values="0 0 0 0 0.666667 0 0 0 0 0.666667 0 0 0 0 0.666667 0 0 0 0.25 0"/>
<feBlend mode="normal" in2="shape" result="effect1_innerShadow_54_14035"/>
<feColorMatrix in="SourceAlpha" type="matrix" values="0 0 0 0 0 0 0 0 0 0 0 0 0 0 0 0 0 0 127 0" result="hardAlpha"/>
<feOffset dx="-2" dy="-2"/>
<feComposite in2="hardAlpha" operator="arithmetic" k2="-1" k3="1"/>
<feColorMatrix type="matrix" values="0 0 0 0 0.133333 0 0 0 0 0.133333 0 0 0 0 0.133333 0 0 0 0.25 0"/>
<feBlend mode="normal" in2="effect1_innerShadow_54_14035" result="effect2_innerShadow_54_14035"/>
</filter>
<filter id="filter3_di_54_14035" x="167.99" y="8.70728" width="74.958" height="61.7924" filterUnits="userSpaceOnUse" color-interpolation-filters="sRGB">
<feFlood flood-opacity="0" result="BackgroundImageFix"/>
<feColorMatrix in="SourceAlpha" type="matrix" values="0 0 0 0 0 0 0 0 0 0 0 0 0 0 0 0 0 0 127 0" result="hardAlpha"/>
<feOffset dx="2" dy="2"/>
<feGaussianBlur stdDeviation="1"/>
<feComposite in2="hardAlpha" operator="out"/>
<feColorMatrix type="matrix" values="0 0 0 0 0 0 0 0 0 0 0 0 0 0 0 0 0 0 0.25 0"/>
<feBlend mode="normal" in2="BackgroundImageFix" result="effect1_dropShadow_54_14035"/>
<feBlend mode="normal" in="SourceGraphic" in2="effect1_dropShadow_54_14035" result="shape"/>
<feColorMatrix in="SourceAlpha" type="matrix" values="0 0 0 0 0 0 0 0 0 0 0 0 0 0 0 0 0 0 127 0" result="hardAlpha"/>
<feMorphology radius="2" operator="erode" in="SourceAlpha" result="effect2_innerShadow_54_14035"/>
<feOffset dx="2" dy="2"/>
<feGaussianBlur stdDeviation="1"/>
<feComposite in2="hardAlpha" operator="arithmetic" k2="-1" k3="1"/>
<feColorMatrix type="matrix" values="0 0 0 0 1 0 0 0 0 1 0 0 0 0 1 0 0 0 0.25 0"/>
<feBlend mode="normal" in2="shape" result="effect2_innerShadow_54_14035"/>
</filter>
</defs>
</svg>
