<svg width="50" height="50" viewBox="0 0 50 50" fill="none" xmlns="http://www.w3.org/2000/svg">
<g filter="url(#filter0_ii_141_9273)">
<circle cx="25" cy="25" r="24.5" fill="#0796FA" stroke="#347BAD"/>
<g filter="url(#filter1_di_141_9273)">
<path d="M20.3333 11.1111V8H29.6667V11.1111H20.3333ZM23.4444 28.2222H26.5556V18.8889H23.4444V28.2222ZM25 40.6667C23.0815 40.6667 21.2731 40.2972 19.575 39.5583C17.8769 38.8194 16.3926 37.8148 15.1222 36.5444C13.8519 35.2741 12.8472 33.7898 12.1083 32.0917C11.3694 30.3935 11 28.5852 11 26.6667C11 24.7481 11.3694 22.9398 12.1083 21.2417C12.8472 19.5435 13.8519 18.0593 15.1222 16.7889C16.3926 15.5185 17.8769 14.5139 19.575 13.775C21.2731 13.0361 23.0815 12.6667 25 12.6667C26.6074 12.6667 28.15 12.9259 29.6278 13.4444C31.1056 13.963 32.4926 14.7148 33.7889 15.7L35.9667 13.5222L38.1444 15.7L35.9667 17.8778C36.9519 19.1741 37.7037 20.5611 38.2222 22.0389C38.7407 23.5167 39 25.0593 39 26.6667C39 28.5852 38.6306 30.3935 37.8917 32.0917C37.1528 33.7898 36.1481 35.2741 34.8778 36.5444C33.6074 37.8148 32.1231 38.8194 30.425 39.5583C28.7269 40.2972 26.9185 40.6667 25 40.6667ZM25 37.5556C28.0074 37.5556 30.5741 36.4926 32.7 34.3667C34.8259 32.2407 35.8889 29.6741 35.8889 26.6667C35.8889 23.6593 34.8259 21.0926 32.7 18.9667C30.5741 16.8407 28.0074 15.7778 25 15.7778C21.9926 15.7778 19.4259 16.8407 17.3 18.9667C15.1741 21.0926 14.1111 23.6593 14.1111 26.6667C14.1111 29.6741 15.1741 32.2407 17.3 34.3667C19.4259 36.4926 21.9926 37.5556 25 37.5556Z" fill="#F8F8F8"/>
<path d="M33.7813 15.71L33.79 15.7166L33.7977 15.7088L35.9667 13.5399L38.1268 15.7L35.9578 17.8689L35.9501 17.8767L35.9567 17.8853C36.9411 19.1806 37.6924 20.5665 38.2104 22.043C38.7285 23.5194 38.9875 25.0606 38.9875 26.6667C38.9875 28.5835 38.6184 30.3902 37.8802 32.0867C37.1419 33.7834 36.1382 35.2664 34.8689 36.5356C33.5997 37.8048 32.1168 38.8086 30.42 39.5469C28.7235 40.2851 26.9169 40.6542 25 40.6542C23.0831 40.6542 21.2765 40.2851 19.58 39.5469C17.8832 38.8086 16.4003 37.8048 15.1311 36.5356C13.8618 35.2664 12.8581 33.7834 12.1198 32.0867C11.3816 30.3902 11.0125 28.5835 11.0125 26.6667C11.0125 24.7498 11.3816 22.9432 12.1198 21.2467C12.8581 19.5499 13.8618 18.067 15.1311 16.7977C16.4003 15.5285 17.8832 14.5247 19.58 13.7865C21.2765 13.0483 23.0831 12.6792 25 12.6792C26.606 12.6792 28.1472 12.9382 29.6236 13.4562C31.1001 13.9743 32.486 14.7255 33.7813 15.71ZM20.3458 11.0986V8.0125H29.6542V11.0986H20.3458ZM26.5431 18.9014V28.2097H23.4569V18.9014H26.5431ZM25 37.5681C28.0107 37.5681 30.5806 36.5038 32.7088 34.3755C34.8371 32.2472 35.9014 29.6774 35.9014 26.6667C35.9014 23.6559 34.8371 21.0861 32.7088 18.9578C30.5806 16.8296 28.0107 15.7653 25 15.7653C21.9893 15.7653 19.4194 16.8296 17.2912 18.9578C15.1629 21.0861 14.0986 23.6559 14.0986 26.6667C14.0986 29.6774 15.1629 32.2472 17.2912 34.3755C19.4194 36.5038 21.9893 37.5681 25 37.5681Z" stroke="#347BAD" stroke-width="0.025"/>
</g>
</g>
<defs>
<filter id="filter0_ii_141_9273" x="0" y="0" width="50" height="50" filterUnits="userSpaceOnUse" color-interpolation-filters="sRGB">
<feFlood flood-opacity="0" result="BackgroundImageFix"/>
<feBlend mode="normal" in="SourceGraphic" in2="BackgroundImageFix" result="shape"/>
<feColorMatrix in="SourceAlpha" type="matrix" values="0 0 0 0 0 0 0 0 0 0 0 0 0 0 0 0 0 0 127 0" result="hardAlpha"/>
<feOffset dx="2" dy="2"/>
<feComposite in2="hardAlpha" operator="arithmetic" k2="-1" k3="1"/>
<feColorMatrix type="matrix" values="0 0 0 0 1 0 0 0 0 1 0 0 0 0 1 0 0 0 0.35 0"/>
<feBlend mode="normal" in2="shape" result="effect1_innerShadow_141_9273"/>
<feColorMatrix in="SourceAlpha" type="matrix" values="0 0 0 0 0 0 0 0 0 0 0 0 0 0 0 0 0 0 127 0" result="hardAlpha"/>
<feOffset dx="-2" dy="-2"/>
<feComposite in2="hardAlpha" operator="arithmetic" k2="-1" k3="1"/>
<feColorMatrix type="matrix" values="0 0 0 0 0.133333 0 0 0 0 0.133333 0 0 0 0 0.133333 0 0 0 0.25 0"/>
<feBlend mode="normal" in2="effect1_innerShadow_141_9273" result="effect2_innerShadow_141_9273"/>
</filter>
<filter id="filter1_di_141_9273" x="11" y="8" width="32" height="36.6667" filterUnits="userSpaceOnUse" color-interpolation-filters="sRGB">
<feFlood flood-opacity="0" result="BackgroundImageFix"/>
<feColorMatrix in="SourceAlpha" type="matrix" values="0 0 0 0 0 0 0 0 0 0 0 0 0 0 0 0 0 0 127 0" result="hardAlpha"/>
<feOffset dx="2" dy="2"/>
<feGaussianBlur stdDeviation="1"/>
<feComposite in2="hardAlpha" operator="out"/>
<feColorMatrix type="matrix" values="0 0 0 0 0 0 0 0 0 0 0 0 0 0 0 0 0 0 0.25 0"/>
<feBlend mode="normal" in2="BackgroundImageFix" result="effect1_dropShadow_141_9273"/>
<feBlend mode="normal" in="SourceGraphic" in2="effect1_dropShadow_141_9273" result="shape"/>
<feColorMatrix in="SourceAlpha" type="matrix" values="0 0 0 0 0 0 0 0 0 0 0 0 0 0 0 0 0 0 127 0" result="hardAlpha"/>
<feMorphology radius="2" operator="erode" in="SourceAlpha" result="effect2_innerShadow_141_9273"/>
<feOffset dx="2" dy="2"/>
<feGaussianBlur stdDeviation="1"/>
<feComposite in2="hardAlpha" operator="arithmetic" k2="-1" k3="1"/>
<feColorMatrix type="matrix" values="0 0 0 0 1 0 0 0 0 1 0 0 0 0 1 0 0 0 0.25 0"/>
<feBlend mode="normal" in2="shape" result="effect2_innerShadow_141_9273"/>
</filter>
</defs>
</svg>
