<svg width="68" height="68" viewBox="0 0 68 68" fill="none" xmlns="http://www.w3.org/2000/svg">
<rect width="68" height="68" rx="16" fill="#333333"/>
<path d="M46.6479 12.92H21.3519C16.6951 12.92 12.9199 16.6952 12.9199 21.352V46.648C12.9199 51.3049 16.6951 55.08 21.3519 55.08H46.6479C51.3048 55.08 55.0799 51.3049 55.0799 46.648V21.352C55.0799 16.6952 51.3048 12.92 46.6479 12.92Z" fill="#FAD532"/>
<path d="M45.5197 17.6801H22.4797C19.8287 17.6801 17.6797 19.8291 17.6797 22.4801V45.5201C17.6797 48.171 19.8287 50.3201 22.4797 50.3201H45.5197C48.1707 50.3201 50.3197 48.171 50.3197 45.5201V22.4801C50.3197 19.8291 48.1707 17.6801 45.5197 17.6801Z" fill="#333333"/>
<path d="M33.9995 41.48C38.1306 41.48 41.4795 38.1311 41.4795 34C41.4795 29.8689 38.1306 26.52 33.9995 26.52C29.8684 26.52 26.5195 29.8689 26.5195 34C26.5195 38.1311 29.8684 41.48 33.9995 41.48Z" fill="#FAD532"/>
<path d="M43.5205 26.5199C44.6471 26.5199 45.5605 25.6066 45.5605 24.4799C45.5605 23.3533 44.6471 22.4399 43.5205 22.4399C42.3938 22.4399 41.4805 23.3533 41.4805 24.4799C41.4805 25.6066 42.3938 26.5199 43.5205 26.5199Z" fill="#FAD532"/>
<path d="M34.0002 38.76C36.6291 38.76 38.7602 36.6289 38.7602 34C38.7602 31.3711 36.6291 29.24 34.0002 29.24C31.3714 29.24 29.2402 31.3711 29.2402 34C29.2402 36.6289 31.3714 38.76 34.0002 38.76Z" fill="#333333"/>
</svg>
