<svg width="68" height="68" viewBox="0 0 68 68" fill="none" xmlns="http://www.w3.org/2000/svg">
<rect width="68" height="68" rx="16" fill="#333333"/>
<path d="M46.6479 12.92H21.3519C16.6951 12.92 12.9199 16.6952 12.9199 21.352V46.648C12.9199 51.3049 16.6951 55.08 21.3519 55.08H46.6479C51.3048 55.08 55.0799 51.3049 55.0799 46.648V21.352C55.0799 16.6952 51.3048 12.92 46.6479 12.92Z" fill="#FAD532"/>
<path d="M22.1 24.48C23.79 24.48 25.16 23.11 25.16 21.42C25.16 19.73 23.79 18.36 22.1 18.36C20.41 18.36 19.04 19.73 19.04 21.42C19.04 23.11 20.41 24.48 22.1 24.48Z" fill="#333333"/>
<path d="M19.04 28.5601H25.16V48.2801H19.04V28.5601Z" fill="#333333"/>
<path d="M29.9199 28.5601H36.0399V48.2801H29.9199V28.5601Z" fill="#333333"/>
<path d="M36.04 31.28C36.04 31.28 37.655 27.88 42.0963 27.88C46.5375 27.88 48.96 32.98 48.96 36.38C48.96 39.78 48.96 48.28 48.96 48.28H42.84V36.38C42.84 36.38 42.0963 32.98 39.27 33.405C36.4438 33.83 36.04 36.38 36.04 36.38V31.28Z" fill="#333333"/>
</svg>
