<svg width="68" height="68" viewBox="0 0 68 68" fill="none" xmlns="http://www.w3.org/2000/svg">
<rect width="68" height="68" rx="16" fill="#FAD532"/>
<path fill-rule="evenodd" clip-rule="evenodd" d="M33.9999 14.28C12.9199 14.28 12.9199 14.223 12.9199 35.3315C12.9199 56.44 12.9199 56.44 33.9999 56.44C55.0799 56.44 34.3399 56.44 34.3399 56.44L39.2963 53.464H28.7919C28.7919 52.964 28.7563 52.2679 28.7563 50.3834C23.4599 51.357 22.0897 49.094 21.6681 47.9098C21.431 47.3046 20.4033 45.4362 19.5074 44.9363C18.7696 44.5416 17.7156 43.5679 19.4811 43.5416C21.1411 43.5153 22.3269 45.0679 22.7221 45.6994C24.6193 48.8834 27.6496 47.9888 28.8617 47.4361C29.0461 46.0678 29.5995 45.1468 30.2055 44.6205C25.5152 44.0942 20.6141 42.2785 20.6141 34.2263C20.6141 31.937 21.431 30.0423 22.7748 28.5687C22.564 28.0425 21.8262 25.8847 22.9856 22.9901C22.9856 22.9901 24.7511 22.4375 28.7826 25.1479C30.469 24.6742 32.2608 24.4374 34.0526 24.4374C35.8444 24.4374 37.6362 24.6742 39.3226 25.1479C43.3542 22.4112 45.1196 22.9901 45.1196 22.9901C46.279 25.8847 45.5412 28.0425 45.3304 28.5687C46.6743 30.0423 47.4911 31.9106 47.4911 34.2263C47.4911 42.3048 42.5637 44.0942 37.8734 44.6205C38.6375 45.2784 39.2963 46.5414 39.2963 48.515C39.2963 51.3307 39.2963 52.7536 39.2963 53.464L34.3399 56.44C55.0799 56.44 55.0799 56.383 55.0799 35.3315C55.0799 14.28 55.0799 56.383 55.0799 35.3315C55.0799 14.28 55.0799 14.28 33.9999 14.28Z" fill="#F8F8F8"/>
</svg>
