<svg width="50" height="50" viewBox="0 0 50 50" fill="none" xmlns="http://www.w3.org/2000/svg">
<g filter="url(#filter0_ii_141_9274)">
<circle cx="25" cy="25" r="24.5" fill="#0796FA" stroke="#347BAD"/>
<g filter="url(#filter1_di_141_9274)">
<path d="M25.5 41.3333C24.5833 41.3333 23.7986 41.0069 23.1458 40.3542C22.4931 39.7014 22.1667 38.9167 22.1667 38H28.8333C28.8333 38.9167 28.5069 39.7014 27.8542 40.3542C27.2014 41.0069 26.4167 41.3333 25.5 41.3333ZM18.8333 36.3333V33H32.1667V36.3333H18.8333ZM19.25 31.3333C17.3333 30.1944 15.8125 28.6667 14.6875 26.75C13.5625 24.8333 13 22.75 13 20.5C13 17.0278 14.2153 14.0764 16.6458 11.6458C19.0764 9.21528 22.0278 8 25.5 8C28.9722 8 31.9236 9.21528 34.3542 11.6458C36.7847 14.0764 38 17.0278 38 20.5C38 22.75 37.4375 24.8333 36.3125 26.75C35.1875 28.6667 33.6667 30.1944 31.75 31.3333H19.25ZM20.25 28H30.75C32 27.1111 32.9653 26.0139 33.6458 24.7083C34.3264 23.4028 34.6667 22 34.6667 20.5C34.6667 17.9444 33.7778 15.7778 32 14C30.2222 12.2222 28.0556 11.3333 25.5 11.3333C22.9444 11.3333 20.7778 12.2222 19 14C17.2222 15.7778 16.3333 17.9444 16.3333 20.5C16.3333 22 16.6736 23.4028 17.3542 24.7083C18.0347 26.0139 19 27.1111 20.25 28Z" fill="#F8F8F8"/>
<path d="M20.2428 28.0102L20.2411 28.0125H20.25H30.75V28.0153L30.7572 28.0102C32.0088 27.1202 32.9754 26.0215 33.6569 24.7141C34.3384 23.4067 34.6792 22.002 34.6792 20.5C34.6792 17.9412 33.789 15.7713 32.0088 13.9912C30.2287 12.211 28.0588 11.3208 25.5 11.3208C22.9412 11.3208 20.7713 12.211 18.9912 13.9912C17.211 15.7713 16.3208 17.9412 16.3208 20.5C16.3208 22.002 16.6616 23.4067 17.3431 24.7141C18.0246 26.0215 18.9912 27.1202 20.2428 28.0102ZM25.5 41.3208C24.5867 41.3208 23.8051 40.9958 23.1547 40.3453C22.5072 39.6978 22.1821 38.9205 22.1792 38.0125H28.8208C28.8179 38.9205 28.4928 39.6978 27.8453 40.3453C27.1949 40.9958 26.4133 41.3208 25.5 41.3208ZM18.8458 36.3208V33.0125H32.1542V36.3208H18.8458ZM19.2534 31.3208C17.34 30.1832 15.8216 28.6575 14.6983 26.7437C13.5744 24.8289 13.0125 22.7478 13.0125 20.5C13.0125 17.0311 14.2265 14.0829 16.6547 11.6547C19.0829 9.22649 22.0311 8.0125 25.5 8.0125C28.9689 8.0125 31.9171 9.22649 34.3453 11.6547C36.7735 14.0829 37.9875 17.0311 37.9875 20.5C37.9875 22.7478 37.4256 24.8289 36.3017 26.7437C35.1784 28.6575 33.66 30.1832 31.7466 31.3208H19.2534Z" stroke="#347BAD" stroke-width="0.025"/>
</g>
</g>
<defs>
<filter id="filter0_ii_141_9274" x="0" y="0" width="50" height="50" filterUnits="userSpaceOnUse" color-interpolation-filters="sRGB">
<feFlood flood-opacity="0" result="BackgroundImageFix"/>
<feBlend mode="normal" in="SourceGraphic" in2="BackgroundImageFix" result="shape"/>
<feColorMatrix in="SourceAlpha" type="matrix" values="0 0 0 0 0 0 0 0 0 0 0 0 0 0 0 0 0 0 127 0" result="hardAlpha"/>
<feOffset dx="2" dy="2"/>
<feComposite in2="hardAlpha" operator="arithmetic" k2="-1" k3="1"/>
<feColorMatrix type="matrix" values="0 0 0 0 1 0 0 0 0 1 0 0 0 0 1 0 0 0 0.35 0"/>
<feBlend mode="normal" in2="shape" result="effect1_innerShadow_141_9274"/>
<feColorMatrix in="SourceAlpha" type="matrix" values="0 0 0 0 0 0 0 0 0 0 0 0 0 0 0 0 0 0 127 0" result="hardAlpha"/>
<feOffset dx="-2" dy="-2"/>
<feComposite in2="hardAlpha" operator="arithmetic" k2="-1" k3="1"/>
<feColorMatrix type="matrix" values="0 0 0 0 0.133333 0 0 0 0 0.133333 0 0 0 0 0.133333 0 0 0 0.25 0"/>
<feBlend mode="normal" in2="effect1_innerShadow_141_9274" result="effect2_innerShadow_141_9274"/>
</filter>
<filter id="filter1_di_141_9274" x="13" y="8" width="29" height="37.3333" filterUnits="userSpaceOnUse" color-interpolation-filters="sRGB">
<feFlood flood-opacity="0" result="BackgroundImageFix"/>
<feColorMatrix in="SourceAlpha" type="matrix" values="0 0 0 0 0 0 0 0 0 0 0 0 0 0 0 0 0 0 127 0" result="hardAlpha"/>
<feOffset dx="2" dy="2"/>
<feGaussianBlur stdDeviation="1"/>
<feComposite in2="hardAlpha" operator="out"/>
<feColorMatrix type="matrix" values="0 0 0 0 0 0 0 0 0 0 0 0 0 0 0 0 0 0 0.25 0"/>
<feBlend mode="normal" in2="BackgroundImageFix" result="effect1_dropShadow_141_9274"/>
<feBlend mode="normal" in="SourceGraphic" in2="effect1_dropShadow_141_9274" result="shape"/>
<feColorMatrix in="SourceAlpha" type="matrix" values="0 0 0 0 0 0 0 0 0 0 0 0 0 0 0 0 0 0 127 0" result="hardAlpha"/>
<feMorphology radius="2" operator="erode" in="SourceAlpha" result="effect2_innerShadow_141_9274"/>
<feOffset dx="2" dy="2"/>
<feGaussianBlur stdDeviation="1"/>
<feComposite in2="hardAlpha" operator="arithmetic" k2="-1" k3="1"/>
<feColorMatrix type="matrix" values="0 0 0 0 1 0 0 0 0 1 0 0 0 0 1 0 0 0 0.25 0"/>
<feBlend mode="normal" in2="shape" result="effect2_innerShadow_141_9274"/>
</filter>
</defs>
</svg>
